<svg width="48" height="30" xmlns="http://www.w3.org/2000/svg">
 <g>
  <title>background</title>
  <rect x="-1" y="-1" width="50" height="32" id="canvas_background" fill="none"/>
 </g>

 <g>
  <title>Layer 1</title>
  <path stroke="null" id="icon" d="m24,1.19346c-10.66472,0 -22,2.5938 -22,7.40124l0,12.8106c0,4.80788 11.33528,7.40124 22,7.40124c2.1208,0 4.21696,-0.09328 6.23568,-0.28468l2.16128,-0.2024l0,-4.7036l10.82048,1.54792l0.3674,-0.24376c1.60204,-1.04984 2.41516,-2.23388 2.41516,-3.51428l0,-12.81104c0,-4.80744 -11.33528,-7.40124 -22,-7.40124zm6.19652,20.08468l0,2.02224l0,2.81732l0,0.48576c-1.25224,0.07172 -4.91348,0.20768 -6.19652,0.20768c-12.26896,0 -19.79956,-3.14908 -19.79956,-5.40584l0,-3.36952l0,-6.07376c1.93292,1.3398 4.9896,2.35884 8.55448,3.03776c3.46104,0.6578 7.39552,0.99968 11.24508,0.99968c2.10496,0 4.18836,-0.0968 6.19652,-0.28336l0,5.56204zm11.64372,-7.70704c-0.154,-0.0748 -0.32648,-0.11836 -0.50908,-0.11836c-0.64548,0 -1.16864,0.52316 -1.16864,1.16864s0.52316,1.1682 1.16864,1.1682c0.1826,0 0.35552,-0.04312 0.50908,-0.11792l0,1.27468l0,2.29856l0,3.69864l-6.7848,-0.96932c0.12496,-0.15576 0.2002,-0.3542 0.2002,-0.57024c0,-0.50424 -0.40964,-0.91388 -0.91388,-0.91388c-0.50468,0 -0.91432,0.40964 -0.91432,0.91388c0,0.1232 0.02508,0.24068 0.06864,0.3476l-1.09912,-0.15664l0,-6.08432l-1.10352,-1.10132l-4.3846,-4.38856l7.45932,1.06656c-0.0242,0.07084 -0.03784,0.14608 -0.03784,0.2244c0,0.38544 0.3124,0.69784 0.69784,0.69784s0.69828,-0.3124 0.69828,-0.69784c0,-0.01012 -0.00132,-0.02024 -0.00176,-0.03036l6.11512,0.87472l0,1.41504l0.00044,0zm0.80696,-3.32112l-21.55692,-3.08088l6.71792,6.72584c-1.25092,0.06996 -2.5256,0.10736 -3.80864,0.10736c-12.26896,0 -19.79956,-3.14732 -19.79956,-5.4076c0.00044,-2.2572 7.53104,-5.40584 19.8,-5.40584c12.26632,0 19.79956,3.14908 19.79956,5.40584c0,0.63008 -0.56628,1.21616 -1.15236,1.65528z"/>
 </g>
</svg>